<?xml version="1.0" encoding="UTF-8"?>
<svg width="1695px" height="303px" viewBox="0 0 1695 303" version="1.1" xmlns="http://www.w3.org/2000/svg" xmlns:xlink="http://www.w3.org/1999/xlink">
    <title> Logo / Black</title>
    <g id="Page-3" stroke="none" stroke-width="1" fill="none" fill-rule="evenodd">
        <g id="-Logo-/-Black" transform="translate(-36.000000, -12.000000)">
            <g id="Group-Copy" transform="translate(384.000000, 90.000000)" fill="#000000">
                <path d="M-6.82121026e-13,99.8540769 L-6.82121026e-13,99.4303846 C-6.82121026e-13,69.2893846 24.0746528,43.1538462 54.9059306,43.1538462 C75.1797361,43.1538462 87.8479167,52.4319231 97.98875,62.9693077 L90.595375,70.5565385 C81.2996111,61.0666154 70.7421389,52.8516923 54.6976111,52.8516923 C30.1984583,52.8516923 11.1902917,73.2987692 11.1902917,99.0106154 L11.1902917,99.4303846 C11.1902917,125.361923 30.8312778,146.009077 55.53875,146.009077 C70.7421389,146.009077 82.5691806,138.217846 91.6526944,128.096308 L98.8298889,134.416385 C87.8479167,146.860385 74.7552361,155.710846 54.9059306,155.710846 C23.8663333,155.710846 -6.82121026e-13,129.995077 -6.82121026e-13,99.8540769" id="Fill-1"></path>
                <path d="M939.402778,3.41060513e-13 L964.955319,3.41060513e-13 L964.955319,59.8583077 C972.132514,49.317 982.481667,40.2586154 999.799694,40.2586154 C1024.92381,40.2586154 1039.49831,57.1239231 1039.49831,83.0476154 L1039.49831,153.867 L1013.94576,153.867 L1013.94576,90.6348462 C1013.94576,73.3497692 1005.28675,63.444 990.079431,63.444 C975.300542,63.444 964.955319,73.7695385 964.955319,91.0585385 L964.955319,153.867 L939.402778,153.867 L939.402778,3.41060513e-13" id="Fill-8"></path>
                <path d="M1129.83426,105.621 C1123.28596,103.094538 1114.20638,101.199692 1104.28172,101.199692 C1088.22933,101.199692 1078.72918,107.731615 1078.72918,118.480846 L1078.72918,118.908462 C1078.72918,129.445846 1088.22933,135.346154 1100.27256,135.346154 C1117.16215,135.346154 1129.83426,125.860154 1129.83426,111.945 L1129.83426,105.621 Z M1129.19751,152.207538 L1129.19751,138.508154 C1121.59975,147.566538 1109.98496,154.522154 1093.09143,154.522154 C1071.97256,154.522154 1053.38889,142.509692 1053.38889,120.163846 L1053.38889,119.744077 C1053.38889,95.0836154 1072.60538,83.2869231 1098.58242,83.2869231 C1112.0996,83.2869231 1120.75468,85.1778462 1129.41369,87.9200769 L1129.41369,85.8133846 C1129.41369,70.4270769 1119.69736,61.9963846 1101.95876,61.9963846 C1089.50283,61.9963846 1080.20707,64.7346923 1070.0741,68.952 L1063.10129,48.5049231 C1075.35283,43.0243846 1087.38819,39.2307692 1105.55129,39.2307692 C1138.49328,39.2307692 1154.54174,56.5119231 1154.54174,86.2370769 L1154.54174,152.207538 L1129.19751,152.207538 L1129.19751,152.207538 Z" id="Fill-9"></path>
                <path d="M1171.30556,41.3849415 L1196.8581,41.3849415 L1196.8581,66.4612492 C1203.82697,49.8117108 1216.7074,38.4347877 1236.34839,39.2743262 L1236.34839,66.2533262 L1234.8705,66.2533262 C1212.48599,66.2533262 1196.8581,80.8000954 1196.8581,110.30948 L1196.8581,152.670865 L1171.30556,152.670865 L1171.30556,41.3849415" id="Fill-10"></path>
                <path d="M1320.69811,89.3951538 C1319.00404,72.9574615 1309.29164,60.0936923 1292.39811,60.0936923 C1276.77415,60.0936923 1265.79218,72.1100769 1263.46529,89.3951538 L1320.69811,89.3951538 Z M1238.125,97.6100769 L1238.125,97.1981538 C1238.125,65.3663077 1260.72569,39.2307692 1292.61036,39.2307692 C1328.08756,39.2307692 1346.03447,67.0571538 1346.03447,99.0890769 C1346.03447,101.411538 1345.82615,103.726154 1345.6139,106.252615 L1263.68147,106.252615 C1266.42107,124.381154 1279.30936,134.506615 1295.78232,134.506615 C1308.23825,134.506615 1317.10558,129.861692 1325.97292,121.219154 L1340.96406,134.506615 C1330.41444,147.138923 1315.83994,155.369538 1295.36175,155.369538 C1263.04472,155.369538 1238.125,131.976231 1238.125,97.6100769 L1238.125,97.6100769 Z" id="Fill-11"></path>
                <path d="M209.518264,99.8540769 L209.518264,99.4303846 C209.518264,73.5066923 190.089528,52.8516923 165.173736,52.8516923 C139.621194,52.8516923 121.245847,73.7146154 121.245847,99.0106154 L121.245847,99.4303846 C121.245847,125.361923 140.678514,146.009077 165.590375,146.009077 C191.142917,146.009077 209.518264,125.146154 209.518264,99.8540769 Z M110.055556,99.8540769 L110.055556,99.4303846 C110.055556,69.2893846 133.493458,43.1538462 165.590375,43.1538462 C197.482903,43.1538462 220.708556,68.8735385 220.708556,99.0106154 L220.708556,99.4303846 C220.708556,129.567462 197.270653,155.710846 165.173736,155.710846 C133.281208,155.710846 110.055556,129.995077 110.055556,99.8540769 L110.055556,99.8540769 Z" id="Fill-2"></path>
                <path d="M235.833333,45.6842308 L246.178556,45.6842308 L246.178556,64.8641538 C253.147431,53.6951538 262.863764,43.1538462 282.08025,43.1538462 C300.876167,43.1538462 312.487028,53.907 318.402514,66.3392308 C325.371389,54.3267692 336.98225,43.1538462 357.256056,43.1538462 C382.808597,43.1538462 398.648736,61.0666154 398.648736,88.0456154 L398.648736,153.180462 L388.295653,153.180462 L388.295653,89.3166923 C388.295653,66.1273846 376.260292,52.6359231 356.414917,52.6359231 C338.251819,52.6359231 322.415611,66.5510769 322.415611,90.576 L322.415611,153.180462 L312.066458,153.180462 L312.066458,88.6811538 C312.066458,66.3392308 299.818847,52.6359231 280.602361,52.6359231 C261.381944,52.6359231 246.178556,69.5012308 246.178556,91.2115385 L246.178556,153.180462 L235.833333,153.180462 L235.833333,45.6842308" id="Fill-3"></path>
                <path d="M420.569444,45.6842308 L430.914667,45.6842308 L430.914667,64.8641538 C437.883542,53.6951538 447.599875,43.1538462 466.816361,43.1538462 C485.612278,43.1538462 497.223139,53.907 503.138625,66.3392308 C510.1075,54.3267692 521.722292,43.1538462 541.992167,43.1538462 C567.544708,43.1538462 583.384847,61.0666154 583.384847,88.0456154 L583.384847,153.180462 L573.039625,153.180462 L573.039625,89.3166923 C573.039625,66.1273846 561.000333,52.6359231 541.151028,52.6359231 C522.987931,52.6359231 507.151722,66.5510769 507.151722,90.576 L507.151722,153.180462 L496.8065,153.180462 L496.8065,88.6811538 C496.8065,66.3392308 484.554958,52.6359231 465.338472,52.6359231 C446.118056,52.6359231 430.914667,69.5012308 430.914667,91.2115385 L430.914667,153.180462 L420.569444,153.180462 L420.569444,45.6842308" id="Fill-4"></path>
                <path d="M700.841639,99.8540769 L700.841639,99.4303846 C700.841639,73.5066923 681.408972,52.8516923 656.48925,52.8516923 C630.936708,52.8516923 612.565292,73.7146154 612.565292,99.0106154 L612.565292,99.4303846 C612.565292,125.361923 631.994028,146.009077 656.91375,146.009077 C682.466292,146.009077 700.841639,125.146154 700.841639,99.8540769 Z M601.375,99.8540769 L601.375,99.4303846 C601.375,69.2893846 624.812903,43.1538462 656.91375,43.1538462 C688.802347,43.1538462 712.028,68.8735385 712.028,99.0106154 L712.028,99.4303846 C712.028,129.567462 688.590097,155.710846 656.48925,155.710846 C624.600653,155.710846 601.375,129.995077 601.375,99.8540769 L601.375,99.8540769 Z" id="Fill-5"></path>
                <path d="M727.152778,45.6842308 L737.498,45.6842308 L737.498,65.7076154 C744.679125,53.0596154 756.718417,43.1538462 776.359403,43.1538462 C803.602083,43.1538462 819.438292,61.7021538 819.438292,87.414 L819.438292,153.180462 L809.089139,153.180462 L809.089139,89.3166923 C809.089139,67.1826923 796.629278,52.6359231 774.881514,52.6359231 C753.762639,52.6359231 737.498,68.6577692 737.498,90.9996923 L737.498,153.180462 L727.152778,153.180462 L727.152778,45.6842308" id="Fill-6"></path>
                <path d="M833.277778,137.868692 L844.68425,120.591462 C856.715681,129.657692 869.812292,134.290846 881.218764,134.290846 C892.200736,134.290846 898.532861,129.657692 898.532861,122.278385 L898.532861,121.854692 C898.532861,113.212154 886.705819,110.262 873.613139,106.256538 C857.144111,101.627308 838.768764,94.8756923 838.768764,73.5890769 L838.768764,73.1653846 C838.768764,52.0906154 856.299042,39.2307692 878.471306,39.2307692 C892.409056,39.2307692 907.612444,44.0836154 919.439486,51.8748462 L909.298653,70.0033846 C898.532861,63.4714615 887.130319,59.466 877.834556,59.466 C867.913833,59.466 862.214528,64.1030769 862.214528,70.6389231 L862.214528,71.0626154 C862.214528,79.0696154 874.245958,82.4395385 887.338639,86.6529231 C903.599347,91.7136923 921.974694,99.093 921.974694,119.120308 L921.974694,119.544 C921.974694,142.933385 903.811597,154.53 880.582014,154.53 C864.741875,154.53 847.215528,148.833692 833.277778,137.868692" id="Fill-7"></path>
            </g>
            <g id="Group" transform="translate(36.000000, 12.000000)">
                <path d="M219.702333,224.411769 C219.702333,243.956538 203.811097,259.856769 184.229069,259.856769 L116.631375,259.856769 L116.631375,239.488154 L184.229069,239.488154 C192.565778,239.488154 199.338125,232.732615 199.338125,224.411769 C199.338125,216.098769 192.565778,209.331462 184.229069,209.331462 L181.320458,209.284385 L83.9841806,209.284385 C70.4827222,208.856769 57.5433333,205.263231 45.9049583,198.809769 C41.6953333,191.740385 39.3055556,183.462692 39.3055556,174.667154 C39.3055556,172.631077 39.3959583,170.591077 39.6986111,168.692308 C51.8990556,181.646308 68.875125,188.966769 86.8888611,188.966769 L187.094444,188.966769 C205.505167,190.567385 219.702333,206.122385 219.702333,224.411769" id="Fill-12" fill="#3BACF9"></path>
                <path d="M218.165486,74.6796923 C218.165486,92.9651538 203.968319,108.524077 185.773778,110.124692 L115.094528,110.124692 L115.094528,89.76 L182.692222,89.76 C191.028931,89.76 197.801278,82.9966154 197.801278,74.6796923 C197.801278,66.3549231 191.028931,59.5523077 182.692222,59.5523077 L85.3520139,59.5523077 C51.3566389,59.5523077 23.0527083,85.8565385 20.5764583,119.567538 C36.6878056,100.764231 60.3929861,89.76 85.3520139,89.76 L90.8272778,89.76 L90.8272778,110.081538 L85.3520139,110.081538 C58.6989167,110.081538 34.3412639,126.805615 24.7428472,151.685769 C23.1391806,155.754 21.9246389,160.085077 21.2289306,164.506385 C20.6668611,167.848846 20.4035139,171.403154 20.4035139,174.949615 C20.4035139,210.700615 49.5367917,239.770615 85.3520139,239.770615 L90.8272778,239.770615 L90.8272778,260.1 L85.3520139,260.1 C38.2914722,260.1 -3.19744231e-13,221.920615 -3.19744231e-13,174.949615 C-3.19744231e-13,166.283538 1.30101389,157.786154 3.8205,149.685 C2.25613889,144.659538 1.21454167,139.590923 0.605305556,134.694923 C0.216180556,131.403462 -3.19744231e-13,127.978615 -3.19744231e-13,124.424308 C-3.19744231e-13,77.4533077 38.2914722,39.2307692 85.3520139,39.2307692 L182.692222,39.2307692 C202.27425,39.2307692 218.165486,55.1349231 218.165486,74.6796923" id="Fill-13" fill="#3BACF9"></path>
                <polygon id="Fill-15" fill="#000000" points="283 302.359385 287.401274 302.359385 287.401274 4.26325641e-14 283 4.26325641e-14"></polygon>
            </g>
        </g>
    </g>
</svg>
