<svg width="36" height="36" viewBox="0 0 36 36" fill="none" xmlns="http://www.w3.org/2000/svg">
<path d="M8.41406 0.610168L4.08516 1.69142L0.703125 9.58595L3.30391 11.3203L5.44922 7.03126L6.78125 7.41407L5.60391 19.1406H17.1562L17.875 12.2734L17.9453 11.6406H18.2969L17.875 7.41407L19.2109 7.03126L21.3516 11.3203L23.9531 9.58595L20.5703 1.69142L16.2422 0.610168C15.8125 0.912512 15.2891 1.09532 14.7187 1.23126C13.9844 1.40392 13.1562 1.48439 12.3281 1.48439C11.5 1.48439 10.6719 1.40392 9.9375 1.23126C9.36719 1.09532 8.84375 0.913293 8.41406 0.610168ZM19.2109 13.0469L19.0937 14.1406H33.0625L32.9453 13.0469H19.2109ZM18.9453 15.5469L16.8594 35.3906H21.7578L25.3906 18.4453H26.7656L30.3984 35.3906H35.2969L33.2109 15.5469H18.9453Z" fill="url(#paint0_linear_0_1872)"/>
<defs>
<linearGradient id="paint0_linear_0_1872" x1="5.54835" y1="5.48155" x2="40.8984" y2="40.6418" gradientUnits="userSpaceOnUse">
<stop stop-color="#00CCAC"/>
<stop offset="1" stop-color="#43AEF6"/>
</linearGradient>
</defs>
</svg>
