<svg width="34" height="31" viewBox="0 0 34 31" fill="none" xmlns="http://www.w3.org/2000/svg">
<path d="M17 0.666656C15.4529 0.666656 13.9692 1.28124 12.8752 2.3752C11.7813 3.46916 11.1667 4.95289 11.1667 6.49999H14.5C14.5 5.83695 14.7634 5.20106 15.2322 4.73222C15.7011 4.26338 16.337 3.99999 17 3.99999C17.6631 3.99999 18.2989 4.26338 18.7678 4.73222C19.2366 5.20106 19.5 5.83695 19.5 6.49999C19.5 7.16303 19.2366 7.79892 18.7678 8.26776C18.2989 8.7366 17.6631 8.99999 17 8.99999C16.0833 8.99999 15.3333 9.74999 15.3333 10.6667V13.5833L1.00001 24.3333C0.720167 24.5432 0.513454 24.8358 0.409154 25.1697C0.304854 25.5036 0.308254 25.8618 0.418871 26.1937C0.529489 26.5256 0.741717 26.8142 1.02549 27.0187C1.30927 27.2233 1.65021 27.3333 2.00001 27.3333H17H32C32.3498 27.3333 32.6908 27.2233 32.9745 27.0187C33.2583 26.8142 33.4705 26.5256 33.5811 26.1937C33.6918 25.8618 33.6952 25.5036 33.5909 25.1697C33.4866 24.8358 33.2799 24.5432 33 24.3333L18.6667 13.5833V12.0833C19.8694 11.7247 20.9244 10.9878 21.675 9.98198C22.4257 8.97614 22.8319 7.75504 22.8333 6.49999C22.8333 4.95289 22.2188 3.46916 21.1248 2.3752C20.0308 1.28124 18.5471 0.666656 17 0.666656ZM17 16.5L27 24H21.7127L21.927 24.8154L22 25.6667L21.9153 26.5826L21.7127 27.3333H17H12.2873L12.0531 26.3938L12 25.6667L12.0745 24.8067L12.1168 24.5932L12.2873 24H7.00001L17 16.5Z" fill="url(#paint0_linear_0_1855)"/>
<path d="M17 20.6667C14.25 20.6667 12 22.9167 12 25.6667C12 28.4167 14.25 30.6667 17 30.6667C19.75 30.6667 22 28.4167 22 25.6667C22 22.9167 19.75 20.6667 17 20.6667ZM15.8 28.2667C15.69 28.2667 15.54 28.2267 15.4 28.1667L15.115 28.8667L14.545 28.6667L14.625 28.4717C15.225 26.9617 15.915 25.2417 18.5 24.6667C18.5 24.6667 15.5 24.6667 14.525 27.4417C14.525 27.4417 14 26.9167 14 26.3167C14 25.7167 14.6 24.4417 16.1 24.1417C16.525 24.0567 17 23.9917 17.47 23.9167C18.65 23.7567 19.785 23.5967 20 23.1667C20 23.1667 19.1 28.2667 15.8 28.2667Z" fill="url(#paint1_linear_0_1855)"/>
<defs>
<linearGradient id="paint0_linear_0_1855" x1="5.00204" y1="4.86848" x2="35.3253" y2="38.561" gradientUnits="userSpaceOnUse">
<stop stop-color="#00CCAC"/>
<stop offset="1" stop-color="#43AEF6"/>
</linearGradient>
<linearGradient id="paint1_linear_0_1855" x1="5.00204" y1="4.86848" x2="35.3253" y2="38.561" gradientUnits="userSpaceOnUse">
<stop stop-color="#00CCAC"/>
<stop offset="1" stop-color="#43AEF6"/>
</linearGradient>
</defs>
</svg>
