<svg width="38" height="40" viewBox="0 0 38 40" fill="none" xmlns="http://www.w3.org/2000/svg">
<path d="M29.375 7.67578C30.5599 7.91016 31.6471 8.32682 32.6367 8.92578C33.6263 9.52474 34.4792 10.2539 35.1953 11.1133C35.9115 11.9727 36.4779 12.9492 36.8945 14.043C37.3112 15.1367 37.513 16.2891 37.5 17.5C37.5 18.8151 37.2591 20.0586 36.7773 21.2305C36.2956 22.4023 35.625 23.444 34.7656 24.3555C33.9062 25.2669 32.9102 25.9961 31.7773 26.543C30.6445 27.0898 29.4141 27.4023 28.0859 27.4805C27.1615 28.8607 26.0026 29.987 24.6094 30.8594C23.2161 31.7318 21.6797 32.2591 20 32.4414V40H17.5V32.4414C15.8333 32.2591 14.3034 31.7318 12.9102 30.8594C11.5169 29.987 10.3516 28.8607 9.41406 27.4805C8.09896 27.4154 6.86849 27.1094 5.72266 26.5625C4.57682 26.0156 3.58073 25.2865 2.73438 24.375C1.88802 23.4635 1.22396 22.4219 0.742188 21.25C0.260417 20.0781 0.0130208 18.8281 0 17.5C0 16.2891 0.201823 15.1432 0.605469 14.0625C1.00911 12.9818 1.56901 12.0052 2.28516 11.1328C3.0013 10.2604 3.86068 9.52474 4.86328 8.92578C5.86589 8.32682 6.95312 7.91016 8.125 7.67578C8.5026 6.52995 9.04297 5.48828 9.74609 4.55078C10.4492 3.61328 11.263 2.80599 12.1875 2.12891C13.112 1.45182 14.1341 0.93099 15.2539 0.566406C16.3737 0.201823 17.5391 0.0130208 18.75 0C19.9609 0 21.1198 0.182292 22.2266 0.546875C23.3333 0.911458 24.3555 1.4388 25.293 2.12891C26.2305 2.81901 27.0508 3.6263 27.7539 4.55078C28.457 5.47526 28.9974 6.51693 29.375 7.67578ZM27.5 25C28.5286 25 29.4987 24.8047 30.4102 24.4141C31.3216 24.0234 32.1159 23.4896 32.793 22.8125C33.4701 22.1354 34.0104 21.3411 34.4141 20.4297C34.8177 19.5182 35.013 18.5417 35 17.5C35 16.4714 34.8047 15.5013 34.4141 14.5898C34.0234 13.6784 33.4896 12.8841 32.8125 12.207C32.1354 11.5299 31.3346 10.9896 30.4102 10.5859C29.4857 10.1823 28.5156 9.98698 27.5 10H27.4414C27.4284 10 27.4089 10.0065 27.3828 10.0195C27.2266 8.95182 26.8945 7.96224 26.3867 7.05078C25.8789 6.13932 25.2409 5.33854 24.4727 4.64844C23.7044 3.95833 22.832 3.43099 21.8555 3.06641C20.8789 2.70182 19.8438 2.51302 18.75 2.5C17.6562 2.5 16.6211 2.6888 15.6445 3.06641C14.668 3.44401 13.7956 3.97135 13.0273 4.64844C12.2591 5.32552 11.6211 6.11979 11.1133 7.03125C10.6055 7.94271 10.2734 8.9388 10.1172 10.0195H10.0586C10.0456 10.0195 10.026 10.013 10 10C8.95833 10.013 7.98177 10.2148 7.07031 10.6055C6.15885 10.9961 5.36458 11.5234 4.6875 12.1875C4.01042 12.8516 3.47656 13.6458 3.08594 14.5703C2.69531 15.4948 2.5 16.4714 2.5 17.5C2.5 18.5417 2.69531 19.5117 3.08594 20.4102C3.47656 21.3086 4.01042 22.1029 4.6875 22.793C5.36458 23.4831 6.15885 24.0234 7.07031 24.4141C7.98177 24.8047 8.95833 25 10 25H10.8789C11.1914 25.6641 11.5755 26.2695 12.0312 26.8164C12.487 27.3633 13.0013 27.8516 13.5742 28.2812C14.1471 28.7109 14.7591 29.0625 15.4102 29.3359C16.0612 29.6094 16.7578 29.7982 17.5 29.9023V27.3828C16.7708 27.2266 16.1003 26.9596 15.4883 26.582C14.8763 26.2044 14.349 25.7487 13.9062 25.2148C13.4635 24.681 13.1185 24.069 12.8711 23.3789C12.6237 22.6888 12.5 21.9792 12.5 21.25H15C15 21.6406 15.0586 22.0182 15.1758 22.3828C15.293 22.7474 15.4622 23.0924 15.6836 23.418C15.9049 23.7435 16.1654 24.0169 16.4648 24.2383C16.7643 24.4596 17.1094 24.6419 17.5 24.7852V17.5H20V24.7852C20.3776 24.6549 20.7161 24.4727 21.0156 24.2383C21.3151 24.0039 21.582 23.7305 21.8164 23.418C22.0508 23.1055 22.2201 22.7669 22.3242 22.4023C22.4284 22.0378 22.487 21.6536 22.5 21.25H25C25 21.9922 24.8763 22.7018 24.6289 23.3789C24.3815 24.056 24.0365 24.6615 23.5938 25.1953C23.151 25.7292 22.6237 26.1914 22.0117 26.582C21.3997 26.9727 20.7292 27.2396 20 27.3828V29.9023C20.7161 29.7982 21.4062 29.6094 22.0703 29.3359C22.7344 29.0625 23.3529 28.7174 23.9258 28.3008C24.4987 27.8841 25.013 27.3958 25.4688 26.8359C25.9245 26.276 26.3086 25.6641 26.6211 25H27.5Z" fill="url(#paint0_linear_0_1889)"/>
<defs>
<linearGradient id="paint0_linear_0_1889" x1="5.25236" y1="5.60243" x2="45.8235" y2="43.6385" gradientUnits="userSpaceOnUse">
<stop stop-color="#00CCAC"/>
<stop offset="1" stop-color="#43AEF6"/>
</linearGradient>
</defs>
</svg>
